<svg xmlns="http://www.w3.org/2000/svg" viewBox="0 0 558.27 741.05"><defs><style>.cls-1,.cls-2,.cls-3{fill:#fff;}.cls-2,.cls-3{stroke:#fff;stroke-width:0.5px;}.cls-2{stroke-linecap:square;stroke-miterlimit:10;}.cls-3{stroke-linecap:round;stroke-linejoin:round;}</style></defs><title>makhor-svg_1</title><g id="Layer_2" data-name="Layer 2"><g id="top-r"><path class="cls-1" d="M517.69,53.58c64.38-15.35,20.87-76.72,13.45-44.22C531.5,23.69,528.7,38,518.56,48.7,519.19,47.88,514.17,54.62,517.69,53.58Z"/></g><g id="b-up-r"><path class="cls-1" d="M558.27,50.65c-21.58,13.92-49.45,26.87-72.64,37.93h0c-45,22.12-55.47,65.93-44.08,115.09C463.35,137.64,556.21,121.21,558.27,50.65Z"/></g><g id="mdl-l"><path class="cls-2" d="M515,140.68C455.74,187.94,429,242,436.23,317.41c11.43-.72,43.4-9.76,49.28-9.08C609.18,310.74,451.45,317.46,515,140.68Z"/></g><g id="mdl-r"><path class="cls-2" d="M43.27,140.68C102.53,187.94,129.3,242,122,317.41c-11.42-.72-43.4-9.76-49.27-9.08C-50.91,310.74,106.83,317.46,43.27,140.68Z"/></g><g id="top-l"><path class="cls-1" d="M40.59,53.58C-23.79,38.23,19.71-23.14,27.14,9.36,26.77,23.69,29.58,38,39.72,48.7,39.09,47.88,44.11,54.62,40.59,53.58Z"/></g><g id="b-up-l"><path class="cls-1" d="M0,50.65C21.58,64.57,49.45,77.52,72.64,88.58h0c45,22.12,55.48,65.93,44.09,115.09C94.92,137.64,2.06,121.21,0,50.65Z"/></g><g id="base-l"><path class="cls-1" d="M27.34,318.4c.94-3,13.4-1.66,28.78,0,7.91.85,9.31,1.27,25.9,3.59,34.61,4.75,19.09,1.83,49.65,12.24,29.11,8.73,43.22,13.82,68.35,27.34,34.44,19,27.34,12.09,63.32,44.61,11.12,10.14,13.91,12.67,15.83,18,2.58,5.13,2.66,28.82,2.19,32.23-.8,2.77,1.54,51.05,1.41,75.69.14,10.74,0,21.48.36,32.2.54,15.62,1.32,19.48-1.8,22.26-5.56,5-16.87.51-19.43-.49-9.65-3.79-11-8.95-23.38-19.79-4.18-5.32-45.3-28.86-45.69-37-2.12-6.32.77-7.86-1.44-16.55-7-18-6.39-13.64-25.18-36,7.7-.49,16.75.17,26.62,9.36,7.17,5.62,8.36,10.55,11.51,10.07a5.45,5.45,0,0,0,4.08-5c0-3.23-4-5-9.84-9.35-6.63-5-5.1-5.48-12-11-22.49-17.46-44.6-19.88-66.79-43.78C98.68,401.63,102.52,392.79,77,365.53c-22.38-26.8-18.44-21.28-36.81-36C30.11,321.88,26.82,320,27.34,318.4Z"/></g><g id="base-r"><path class="cls-3" d="M547.4,318.4c-.94-3-13.4-1.66-28.78,0-7.91.85-9.31,1.27-25.9,3.59-34.61,4.75-19.08,1.83-49.65,12.24C414,343,399.85,348.05,374.72,361.57c-34.44,19-27.34,12.09-63.32,44.61-11.12,10.14-13.91,12.67-15.83,18-2.58,5.13-2.66,28.82-2.19,32.23.8,2.76-1.54,51.05-1.41,75.69-.14,10.74,0,21.48-.36,32.2-.54,15.62-1.32,19.48,1.8,22.26,5.77,5.14,17.63.1,19.43-.49,9.22-3,10.14-9.1,21.59-19.43-.75-.57,49.56-31.32,47.48-37.41,2.13-6.32-.77-7.86,1.44-16.55,7-18,6.39-13.64,25.19-36-7.71-.49-16.75.17-26.63,9.36-7.17,5.62-8.36,10.55-11.51,10.07-2.14-.33-4.06-2.82-4.08-5,0-3.23,4-5,9.84-9.35,6.63-5,5.1-5.48,12-11,22.49-17.46,44.6-19.88,66.8-43.78,21.11-25.29,17.27-34.13,42.81-61.39,22.38-26.8,18.44-21.28,36.81-36C544.63,321.88,547.92,320,547.4,318.4Z"/></g><g id="eye-r"><path class="cls-1" d="M202,551.52c2.76,4.56,5.93,9.71,6.2,15.44-8.19,9.16,1.89,19.69,11.13,15.3,6.77,7,10.88,15.79,14.47,24.82,1.16,2,2.86,9.29,2.36,2.57C235.22,586.52,223.39,561.65,202,551.52Z"/></g><g id="eye-l"><path class="cls-1" d="M377.49,549.72c-2.76,4.56-5.93,9.71-6.2,15.44,8.19,9.16-1.89,19.69-11.13,15.3-6.77,7-10.88,15.79-14.47,24.82-1.16,2.05-2.86,9.29-2.36,2.57C344.27,584.72,356.1,559.85,377.49,549.72Z"/></g><g id="strt"><path class="cls-1" d="M240,575.15c.7-.28,1.49,1,2.86,2.85,4.82,8.85,19.49,13.76,24.09,13.81,8.72,1.48,12.38-1,15,1.8,2.7,1.62.88,23,.93,25.82-.48,12.24,1.25,51.45-2.1,65.2-1.12,6.89-2.37,11.82-4.5,12-1.13.13-2.59-1.07-8.45-12.59-11.92-20.71-14.45-44.41-20.69-69.61C241.32,588.88,237.82,576,240,575.15Z"/></g><g id="strt-2" data-name="strt"><path class="cls-1" d="M334.85,575.15c-.7-.28-1.49,1-2.86,2.85-4.83,8.85-19.5,13.76-24.09,13.81-8.73,1.48-12.38-1-15,1.8-2.71,1.62-.89,23-.93,25.82.47,12.24-1.25,51.45,2.1,65.2,1.12,6.89,2.36,11.82,4.49,12,1.14.13,2.6-1.07,8.46-12.59,11.91-20.71,14.45-44.41,20.69-69.61C333.49,588.88,337,576,334.85,575.15Z"/></g><g id="nose"><path class="cls-1" d="M278.2,739.25c-25.53-22.41-9-35.8,3.69-4.79.8,4.29-.84,5,2.59,5.74,5.53,4.24,2.16-8.52,3.14-12.57-1.36-4.73,2.59-13.23-3.14-14.13-4.74-.75-9.91-4.75-14.37-7.23C238.48,692.6,262.17,737.13,278.2,739.25Z"/><path class="cls-1" d="M294.23,739.25c25.53-22.41,9-35.8-3.69-4.79-.8,4.29.84,5-2.59,5.74-5.53,4.24-2.15-8.52-3.14-12.57,1.36-4.73-3.11-14.55,3.14-14.13,4.67-1.15,9.92-4.75,14.37-7.23C334,692.6,310.27,737.13,294.23,739.25Z"/></g></g></svg>